<svg xmlns="http://www.w3.org/2000/svg" version="1.1" xmlns:xlink="http://www.w3.org/1999/xlink" xmlns:svgjs="http://svgjs.dev/svgjs" width="100%" height="100%" viewBox="0 0 1000 600"><rect width="1000" height="600" x="0" y="0" fill="#262223"/><g><rect width="333.3333333333333" height="333.3333333333333" y="123.17214437991441" fill="#ddc6b6" transform="matrix(1.2382375993346084,0,0,1.2382375993346086,0,-58.88932187002747)" x="100.94993591308594"/><path d="M101.88988228684087 216.9394781382658L141.32023796404386 216.9394781382658Q159.28957932017738 216.9394781382658 171.0136519585394 221.3963289959482Q182.7377245969014 225.82479226854983 188.52879195338045 234.90881949439935Q194.3198593098595 243.99284672024885 194.3198593098595 258.0730889203155L194.3198593098595 258.0730889203155Q194.3198593098595 269.6268360481929 190.11849671790412 277.3766467752457Q185.91713412594873 285.0980699172178 179.13250129164237 289.8955717958696Q172.34786845733606 294.6930736745213 164.65483290044475 297.2763439168723L164.65483290044475 297.2763439168723L204.6813278643441 362.85166545347334L184.92356864812143 362.85166545347334L149.2119866165006 301.96029545520094L118.86565816514712 301.96029545520094L118.86565816514712 362.85166545347334L101.88988228684087 362.85166545347334L101.88988228684087 216.9394781382658ZM140.32667248621658 231.61585962502892L140.32667248621658 231.61585962502892L118.86565816514712 231.61585962502892L118.86565816514712 287.59617740432645L142.00154000598258 287.59617740432645Q159.88571860687375 287.59617740432645 168.31683137586532 280.32895562364683Q176.7479441448569 273.0333462578865 176.7479441448569 258.8679413025774L176.7479441448569 258.8679413025774Q176.7479441448569 243.99284672024885 167.8058548444113 237.80435317263888Q158.89215312904645 231.61585962502892 140.32667248621658 231.61585962502892ZM228.04431038582578 216.9394781382658L266.1688371493129 216.9394781382658Q294.41448430468864 216.9394781382658 307.44438585676653 227.9822487346891Q320.4458998237636 238.99663174603162 320.4458998237636 259.54924334451607L320.4458998237636 259.54924334451607Q320.4458998237636 268.83198366593103 317.40842822012024 277.17793367968034Q314.37095661647675 285.4954961083487 307.58632378217044 291.85431516644337Q300.8016909478641 298.1847466394572 289.7589203514408 301.818357529797Q278.74453734009825 305.4803560052176 262.76232693961936 305.4803560052176L262.76232693961936 305.4803560052176L245.02008626413203 305.4803560052176L245.02008626413203 362.85166545347334L228.04431038582578 362.85166545347334L228.04431038582578 216.9394781382658ZM264.57913238478926 231.41714652946345L264.57913238478926 231.41714652946345L245.02008626413203 231.41714652946345L245.02008626413203 290.88913727369686L260.88874632428787 290.88913727369686Q274.85543818403147 290.88913727369686 284.16656609052717 287.908440840215Q293.5060815821037 284.8993568216523 298.19003312043236 278.1714991575076Q302.9023722438418 271.44364149336275 302.9023722438418 260.2589329715356L302.9023722438418 260.2589329715356Q302.9023722438418 245.6961018250956 293.61963192242683 238.54243038473916Q284.33689160101187 231.41714652946345 264.57913238478926 231.41714652946345ZM433.3433256900245 324.0174490629668L433.3433256900245 324.0174490629668Q433.3433256900245 336.99057544488306 426.8993438766875 346.1313778408941Q420.4553620633505 355.27218023690517 408.87322735039237 360.069682115557Q397.29109263743425 364.83879640912795 381.62114567284385 364.83879640912795L381.62114567284385 364.83879640912795Q373.360358414337 364.83879640912795 365.95119870825346 364.0439440268661Q358.5704265872508 363.24909164460433 352.3819330396407 361.7445496353229Q346.19343949203085 360.2683952111225 341.50948795370215 358.05416357482164L341.50948795370215 358.05416357482164L341.50948795370215 341.7880773235349Q349.003810415028 344.8823240973398 359.79109274572426 347.52236950985235Q370.5499874913398 350.19080250744565 382.3308352998634 350.19080250744565L382.3308352998634 350.19080250744565Q393.31683072612503 350.19080250744565 400.8963159426933 347.23849365904454Q408.4758011592614 344.2861848106434 412.42167548548986 338.75060571989144Q416.3675498117182 333.21502662913935 416.3675498117182 325.4368283170058L416.3675498117182 325.4368283170058Q416.3675498117182 317.94250585567994 413.0745899423478 312.88951571130116Q409.7816300729773 307.86491315200306 402.14536968624753 303.7203257302093Q394.5091092995179 299.57573830841545 381.33726982203603 294.8917867700868L381.33726982203603 294.8917867700868Q372.0545295006211 291.5988269007164 364.9576332304262 287.65295257448804Q357.889124545312 283.70707824825956 353.09162266666027 278.71086327404237Q348.2941207880085 273.7430358849059 345.85278847106144 267.1571161461651Q343.4114561541144 260.54280882234343 343.4114561541144 252.08330846827104L343.4114561541144 252.08330846827104Q343.4114561541144 240.38762341498983 349.34446143599735 232.07006098632138Q355.2774667178803 223.72411097257216 365.80926078284955 219.29564769997052Q376.34105484781884 214.8387968422881 390.0238708567546 214.8387968422881L390.0238708567546 214.8387968422881Q401.6911683249551 214.8387968422881 411.626823103228 217.0530284785889Q421.5624778815008 219.23887252980896 429.8232651400078 222.92925859031033L429.8232651400078 222.92925859031033L424.54317431498276 237.4920897367503Q416.65142566252604 234.19912986737987 407.82288670240354 232.01328581615982Q398.99434774228104 229.82744176493978 389.62644466562375 229.82744176493978L389.62644466562375 229.82744176493978Q380.2301540038856 229.82744176493978 373.7861721905487 232.55264993269464Q367.37057796229243 235.30624568553026 363.96406775259885 240.30246065974748Q360.5859451279861 245.2986756339647 360.5859451279861 252.16847122351336L360.5859451279861 252.16847122351336Q360.5859451279861 259.8615067804046 363.82212982719506 264.94288450986426Q367.0583145264039 270.0242622393238 374.2119859667603 273.97013656555214Q381.33726982203603 277.9160108917805 393.11811763055965 282.20253623897827L393.11811763055965 282.20253623897827Q405.97769367215284 286.91487536238776 414.97655814276 292.1381910172512Q423.9470350282864 297.38989425719546 428.63098656661504 304.91260430360205Q433.3433256900245 312.46370193508943 433.3433256900245 324.0174490629668Z " fill="#262223" transform="matrix(1.2382375993346084,0,0,1.2382375993346086,0,-58.88932187002747)"/><path d="M599.3444548222961 362.85166545347334L517.6165973747314 362.85166545347334L517.6165973747314 216.9394781382658L534.5923732530377 216.9394781382658L534.5923732530377 347.692695020337L599.3444548222961 347.692695020337L599.3444548222961 362.85166545347334ZM706.6495264276433 324.0174490629668L706.6495264276433 324.0174490629668Q706.6495264276433 336.99057544488306 700.2055446143063 346.1313778408941Q693.7615628009693 355.27218023690517 682.1794280880113 360.069682115557Q670.6256809601339 364.83879640912795 654.9557339955435 364.83879640912795L654.9557339955435 364.83879640912795Q646.6665591519559 364.83879640912795 639.2857870309532 364.0439440268661Q631.9050149099504 363.24909164460433 625.7165213623405 361.7445496353229Q619.5280278147305 360.2683952111225 614.815688691321 358.05416357482164L614.815688691321 358.05416357482164L614.815688691321 341.7880773235349Q622.3100111526469 344.8823240973398 633.0972934833432 347.52236950985235Q643.8561882289587 350.19080250744565 655.6370360374823 350.19080250744565L655.6370360374823 350.19080250744565Q666.623031463744 350.19080250744565 674.2025166803121 347.23849365904454Q681.7820018968804 344.2861848106434 685.7278762231086 338.75060571989144Q689.6737505493371 333.21502662913935 689.6737505493371 325.4368283170058L689.6737505493371 325.4368283170058Q689.6737505493371 317.94250585567994 686.3807906799667 312.88951571130116Q683.0878308105962 307.86491315200306 675.4515704238664 303.7203257302093Q667.8153100371367 299.57573830841545 654.6434705596549 294.8917867700868L654.6434705596549 294.8917867700868Q645.36073023824 291.5988269007164 638.2922215531258 287.65295257448804Q631.195325282931 283.70707824825956 626.3978234042792 278.71086327404237Q621.6003215256274 273.7430358849059 619.1589892086803 267.1571161461651Q616.7176568917333 260.54280882234343 616.7176568917333 252.08330846827104L616.7176568917333 252.08330846827104Q616.7176568917333 240.38762341498983 622.6506621736163 232.07006098632138Q628.61205504058 223.72411097257216 639.1154615204684 219.29564769997052Q649.6472555854377 214.8387968422881 663.3300715943735 214.8387968422881L663.3300715943735 214.8387968422881Q674.997369062574 214.8387968422881 684.9330238408469 217.0530284785889Q694.8686786191198 219.23887252980896 703.1578534627074 222.92925859031033L703.1578534627074 222.92925859031033L697.8493750526017 237.4920897367503Q689.9860139852257 234.19912986737987 681.1290874400223 232.01328581615982Q672.3005484798999 229.82744176493978 662.9326454032426 229.82744176493978L662.9326454032426 229.82744176493978Q653.5363547415045 229.82744176493978 647.1207605132483 232.55264993269464Q640.6767786999113 235.30624568553026 637.2702684902177 240.30246065974748Q633.892145865605 245.2986756339647 633.892145865605 252.16847122351336L633.892145865605 252.16847122351336Q633.892145865605 259.8615067804046 637.1283305648138 264.94288450986426Q640.3645152640228 270.0242622393238 647.5181867043792 273.97013656555214Q654.6434705596549 277.9160108917805 666.4243183681785 282.20253623897827L666.4243183681785 282.20253623897827Q679.2838944097717 286.91487536238776 688.2827588803789 292.1381910172512Q697.2532357659053 297.38989425719546 701.9371873042338 304.91260430360205Q706.6495264276433 312.46370193508943 706.6495264276433 324.0174490629668Z " fill="#ddc6b6" transform="matrix(1.2382375993346084,0,0,1.2382375993346086,0,-58.88932187002747)"/></g></svg>